<svg width="40" height="40" viewBox="0 0 40 40" fill="none" xmlns="http://www.w3.org/2000/svg">
  <path d="M14 22C14 22 16.5 19 20 19C23.5 19 26 22 26 22" stroke="currentColor" stroke-width="2" stroke-linecap="round"/>
  <path d="M8 24C8 24 8 18 8 15C8 8.4 13.4 4 20 4C26.6 4 32 8.4 32 15C32 18 32 24 32 24" stroke="currentColor" stroke-width="2" stroke-linecap="round"/>
  <path d="M6 24H10V32H6V24Z" stroke="currentColor" stroke-width="2" stroke-linecap="round" stroke-linejoin="round"/>
  <path d="M30 24H34V32H30V24Z" stroke="currentColor" stroke-width="2" stroke-linecap="round" stroke-linejoin="round"/>
  <path d="M10 32C10 34.2 14.5 36 20 36C22 36 24 35.7 25 35" stroke="currentColor" stroke-width="2" stroke-linecap="round"/>
</svg>
